<svg viewBox="0 0 256 256" xmlns="http://www.w3.org/2000/svg"><g fill-rule="nonzero" fill="none"><path d="M127.702158 0c5.261957 0 10.205956 2.04588245 13.922425 5.75192683L249.654995 113.784945c7.675317 7.675317 7.675317 20.166928 0 27.834426L141.621977 249.649783c-3.70865 3.716469-8.660468 5.754533-13.922425 5.754533-5.256745 0-10.200744-2.038064-13.912001-5.754533L5.75713927 141.616765C2.04067001 137.913327 0 132.964115 0 127.709977c0-5.272383 2.04067001-10.211169 5.75713927-13.925032L113.790157 5.75192683C117.498808 2.04588245 122.442807 0 127.702158 0z" fill="#333"/><path d="M127.813475 59l10.255924 14.9381274 18.207797 26.4954356c5.640874 8.20196 2.556455 12.263575-6.868158 9.010115l-4.473797-1.544525c-1.072136-.365869-2.229951-.692373-3.441026-.979511 5.011023 27.870919 19.28688 41.797116 31.212373 53.426209 1.359275 1.319909 2.649081 2.586558 3.913415 3.853208l-16.739688 16.746634c-1.174024-1.164762-2.408255-2.368889-3.71427-3.651748-8.76929-8.551621-19.995462-19.495287-28.357201-36.42254-8.354793 16.924938-19.57865 27.868604-28.3525709 36.420224-1.3083308 1.282859-2.5402458 2.486987-3.7096389 3.651748L79 164.196743c1.2735964-1.266649 2.5634021-2.533299 3.9226768-3.853208 11.9185462-11.626777 26.1967192-25.555289 31.2077422-53.426209-1.215706.287138-2.36889.613642-3.441026.979511l-4.483059 1.544526c-9.4222976 3.253459-12.5090321-.801208-6.8658424-9.010116l18.2101124-26.4954352L127.813475 59z" fill="#FFED00"/></g></svg>